<?xml version="1.0" encoding="UTF-8" standalone="no"?>
<!-- Created with Inkscape (http://www.inkscape.org/) -->

<svg
   xmlns:dc="http://purl.org/dc/elements/1.1/"
   xmlns:cc="http://creativecommons.org/ns#"
   xmlns:rdf="http://www.w3.org/1999/02/22-rdf-syntax-ns#"
   xmlns:svg="http://www.w3.org/2000/svg"
   xmlns="http://www.w3.org/2000/svg"
   xmlns:xlink="http://www.w3.org/1999/xlink"
   xmlns:sodipodi="http://sodipodi.sourceforge.net/DTD/sodipodi-0.dtd"
   xmlns:inkscape="http://www.inkscape.org/namespaces/inkscape"
   width="80.726807mm"
   height="115.81194mm"
   viewBox="0 0 80.726807 115.81194"
   version="1.1"
   id="svg8"
   inkscape:version="0.92.3 (2405546, 2018-03-11)"
   sodipodi:docname="calculadora.svg">
  <defs
     id="defs2">
    <linearGradient
    value = "clear"
       inkscape:collect="always"
       id="huauahuah">
      <stop
         style="stop-color:#ffffff;stop-opacity:0.36500001"
         offset="0"
         id="stop1826" />
      <stop
         style="stop-color:#000000;stop-opacity:0.105"
         offset="1"
         id="stop1828" />
    </linearGradient>
    <linearGradient
       inkscape:collect="always"
       id="linearGradient1637">
      <stop
         style="stop-color:#d40000;stop-opacity:1;"
         offset="0"
         id="stop1633" />
      <stop
         style="stop-color:#600000;stop-opacity:1"
         offset="1"
         id="stop1635" />
    </linearGradient>
    <linearGradient
       inkscape:collect="always"
       xlink:href="#linearGradient1637"
       id="linearGradient1639"
       x1="31.654552"
       y1="19.814295"
       x2="43.843334"
       y2="31.600882"
       gradientUnits="userSpaceOnUse"
       gradientTransform="matrix(0.4107239,0,0,0.4107239,62.810518,87.481199)" />
    <linearGradient
       inkscape:collect="always"
       xlink:href="#linearGradient1637"
       id="linearGradient1647"
       x1="41.901985"
       y1="30.282757"
       x2="37.227142"
       y2="24.108829"
       gradientUnits="userSpaceOnUse"
       gradientTransform="matrix(0.4107239,0,0,0.4107239,62.810518,87.481199)" />
    <linearGradient
       inkscape:collect="always"
       xlink:href="#linearGradient1830"
       id="linearGradient1832"
       x1="111.80537"
       y1="93.283943"
       x2="92.592781"
       y2="21.846447"
       gradientUnits="userSpaceOnUse"
       gradientTransform="matrix(0.4107239,0,0,0.4107239,62.810518,87.481199)" />
  </defs>
  <sodipodi:namedview
     id="base"
     pagecolor="#ffffff"
     bordercolor="#666666"
     borderopacity="1.0"
     inkscape:pageopacity="0.0"
     inkscape:pageshadow="2"
     inkscape:zoom="1"
     inkscape:cx="252.86744"
     inkscape:cy="226.73068"
     inkscape:document-units="mm"
     inkscape:current-layer="layer1"
     showgrid="false"
     inkscape:snap-global="false"
     inkscape:window-width="1366"
     inkscape:window-height="705"
     inkscape:window-x="-8"
     inkscape:window-y="-8"
     inkscape:window-maximized="1" />
  <metadata
     id="metadata5">
    <rdf:RDF>
      <cc:Work
         rdf:about="">
        <dc:format>image/svg+xml</dc:format>
        <dc:type
           rdf:resource="http://purl.org/dc/dcmitype/StillImage" />
        <dc:title />
      </cc:Work>
    </rdf:RDF>
  </metadata>
  <g
     inkscape:label="Base"
     inkscape:groupmode="layer"
     id="layer1"
     style="display:inline"
     transform="translate(-66.225883,-90.5494)">
    <rect
       style="fill:#ababab;fill-opacity:1;stroke-width:0.1570491"
       id="rect10"
       width="80.726799"
       height="115.81192"
       x="66.225883"
       y="90.5494"
       ry="9.935606" />
    <rect
       style="fill:#808080;fill-opacity:1;stroke-width:0.15325022"
       id="rect10-4"
       width="78.553391"
       height="113.32803"
       x="68.3993"
       y="93.033302"
       ry="9.7225113" />
    <rect
       style="fill:#333333;fill-opacity:1;stroke-width:0.10705361"
       id="rect841"
       width="67.065346"
       height="14.731002"
       x="74.91954"
       y="102.03745" />
    <rect
       style="fill:#424242;fill-opacity:1;stroke-width:0.09755913"
       id="rect841-3"
       width="65.352989"
       height="12.554468"
       x="75.261078"
       y="102.56528" />
    <rect
       style="fill:#4d4d4d;fill-opacity:1;stroke-width:0.08355558"
       id="rect858-3"
       width="14.575355"
       height="14.451992"
       x="108.56517"
       y="143.15819"
       ry="4.1072392" />
    <rect
       style="fill:#4d4d4d;fill-opacity:1;stroke-width:0.08355558"
       id="rect858-2"
       width="14.575355"
       height="14.451992"
       x="91.560585"
       y="143.15819"
       ry="4.1072392" />
    <rect
       style="fill:#4d4d4d;fill-opacity:1;stroke-width:0.08355558"
       id="rect858-9"
       width="14.575355"
       height="14.451992"
       x="74.556"
       y="143.15819"
       ry="4.1072392" />
    <rect
       style="fill:#4d4d4d;fill-opacity:1;stroke-width:0.08355558"
       id="rect858"
       width="14.575355"
       height="14.451992"
       x="74.556"
       y="124.06091"
       ry="4.1072392" />
    <rect
       style="fill:#4d4d4d;fill-opacity:1;stroke-width:0.08355558"
       id="rect858-8"
       width="14.575355"
       height="14.451992"
       x="108.56516"
       y="124.06091"
       ry="4.1072392" />
    <rect
       style="fill:#4d4d4d;fill-opacity:1;stroke-width:0.08355558"
       id="rect858-4"
       width="14.575355"
       height="14.451992"
       x="91.560577"
       y="124.06091"
       ry="4.1072392" />
    <rect
       style="fill:#4d4d4d;fill-opacity:1;stroke-width:0.08355558"
       id="rect858-3-2"
       width="14.575355"
       height="14.451992"
       x="108.56517"
       y="181.35275"
       ry="4.1072392" />
    <rect
       style="fill:#4d4d4d;fill-opacity:1;stroke-width:0.08355558"
       id="rect858-2-6"
       width="14.575355"
       height="14.451992"
       x="91.560585"
       y="181.35275"
       ry="4.1072392" />
    <rect
       style="fill:#4d4d4d;fill-opacity:1;stroke-width:0.08355558"
       id="rect858-9-9"
       width="14.575355"
       height="14.451992"
       x="74.556"
       y="181.35275"
       ry="4.1072392" />
    <rect
       style="fill:#4d4d4d;fill-opacity:1;stroke-width:0.08355558"
       id="rect858-83"
       width="14.575355"
       height="14.451992"
       x="74.556"
       y="162.25546"
       ry="4.1072392" />
    <rect
       style="fill:#4d4d4d;fill-opacity:1;stroke-width:0.08355558"
       id="rect858-8-2"
       width="14.575355"
       height="14.451992"
       x="108.56516"
       y="162.25548"
       ry="4.1072392" />
    <rect
       style="fill:#4d4d4d;fill-opacity:1;stroke-width:0.08355558"
       id="rect858-4-4"
       width="14.575355"
       height="14.451992"
       x="91.560577"
       y="162.25546"
       ry="4.1072392" />
    <rect
       style="fill:#4d4d4d;fill-opacity:1;stroke-width:0.08355558"
       id="rect858-3-5"
       width="14.575355"
       height="14.451992"
       x="125.75658"
       y="142.8999"
       ry="4.1072392" />
    <rect
       style="fill:#4d4d4d;fill-opacity:1;stroke-width:0.08355558"
       id="rect858-8-6"
       width="14.575355"
       height="14.451992"
       x="125.75657"
       y="123.80264"
       ry="4.1072392" />
    <rect
       style="fill:#b84900;fill-opacity:1;stroke-width:0.08355558"
       id="rect858-3-2-9"
       width="14.575355"
       height="14.451992"
       x="125.75658"
       y="181.09447"
       ry="4.1072392" />
    <rect
       style="fill:#4d4d4d;fill-opacity:1;stroke-width:0.08355558"
       id="rect858-8-2-5"
       width="14.575355"
       height="14.451992"
       x="125.75657"
       y="161.99719"
       ry="4.1072392" />
    <ellipse
       style="fill:url(#linearGradient1639);fill-opacity:1;stroke-width:0.10888357"
       id="path999"
       cx="78.257278"
       cy="98.039917"
       rx="2.4839015"
       ry="2.4839017" />
    <ellipse
    value = "clear"
       style="fill:url(#linearGradient1647);fill-opacity:1;stroke-width:0.08676242"
       id="buttonClear"
       cx="78.292213"
       cy="98.074844"
       rx="1.9599537"
       ry="1.9987648" />
    <rect
       style="fill:#999999;fill-opacity:1;stroke-width:0.08355558"
       id="rect858-3-4"
       width="14.575355"
       height="14.451993"
       x="107.26112"
       y="141.85416"
       ry="4.1072392" />
    <rect
       style="fill:#999999;fill-opacity:1;stroke-width:0.08355558"
       id="rect858-2-61"
       width="14.575355"
       height="14.451993"
       x="90.256531"
       y="141.85416"
       ry="4.1072392" />
    <rect
       style="fill:#999999;fill-opacity:1;stroke-width:0.08355558"
       id="rect858-9-8"
       width="14.575355"
       height="14.451993"
       x="73.251953"
       y="141.85416"
       ry="4.1072392" />
    <rect
       style="fill:#999999;fill-opacity:1;stroke-width:0.08355558"
       id="rect858-34"
       width="14.575355"
       height="14.451993"
       x="73.251953"
       y="122.75687"
       ry="4.1072392" />
    <rect
       style="fill:#999999;fill-opacity:1;stroke-width:0.08355558"
       id="rect858-8-8"
       width="14.575355"
       height="14.451993"
       x="107.26111"
       y="122.75687"
       ry="4.1072392" />
    <rect
       style="fill:#999999;fill-opacity:1;stroke-width:0.08355558"
       id="rect858-4-0"
       width="14.575355"
       height="14.451993"
       x="90.256531"
       y="122.75687"
       ry="4.1072392" />
    <rect
       style="fill:#999999;fill-opacity:1;stroke-width:0.08355558"
       id="rect858-3-2-2"
       width="14.575355"
       height="14.451993"
       x="107.26112"
       y="180.04872"
       ry="4.1072392" />
    <rect
       style="fill:#999999;fill-opacity:1;stroke-width:0.08355558"
       id="rect858-2-6-2"
       width="14.575355"
       height="14.451993"
       x="90.256531"
       y="180.04872"
       ry="4.1072392" />
    <rect
       style="fill:#999999;fill-opacity:1;stroke-width:0.08355558"
       id="rect858-9-9-9"
       width="14.575355"
       height="14.451993"
       x="73.251953"
       y="180.04872"
       ry="4.1072392" />
    <rect
       style="fill:#999999;fill-opacity:1;stroke-width:0.08355558"
       id="rect858-83-7"
       width="14.575355"
       height="14.451993"
       x="73.251953"
       y="160.95143"
       ry="4.1072392" />
    <rect
       style="fill:#999999;fill-opacity:1;stroke-width:0.08355558"
       id="rect858-8-2-4"
       width="14.575355"
       height="14.451993"
       x="107.26111"
       y="160.95145"
       ry="4.1072392" />
    <rect
       style="fill:#999999;fill-opacity:1;stroke-width:0.08355558"
       id="rect858-4-4-9"
       width="14.575355"
       height="14.451993"
       x="90.256531"
       y="160.95143"
       ry="4.1072392" />
    <rect
       style="fill:#999999;fill-opacity:1;stroke-width:0.08355558"
       id="rect858-3-5-8"
       width="14.575355"
       height="14.451993"
       x="124.45255"
       y="141.59587"
       ry="4.1072392" />
    <rect
       style="fill:#999999;fill-opacity:1;stroke-width:0.08355558"
       id="rect858-8-6-8"
       width="14.575355"
       height="14.451993"
       x="124.45254"
       y="122.49859"
       ry="4.1072392" />
    <rect
       style="fill:#ff6600;fill-opacity:1;stroke-width:0.08355558"
       id="rect858-3-2-9-7"
       width="14.575355"
       height="14.451993"
       x="124.45255"
       y="179.79042"
       ry="4.1072392" />
    <rect
       style="fill:#999999;fill-opacity:1;stroke-width:0.08355558"
       id="rect858-8-2-5-6"
       width="14.575355"
       height="14.451993"
       x="124.45254"
       y="160.69316"
       ry="4.1072392" />
    <text
       xml:space="preserve"
       style="font-style:normal;font-weight:normal;font-size:4.34682798px;line-height:1.25;font-family:sans-serif;letter-spacing:0px;word-spacing:0px;display:inline;fill:#a4a4a4;fill-opacity:1;stroke:none;stroke-width:0.1086707"
       x="82.402565"
       y="99.356621"
       id="text1655-7"><tspan
         sodipodi:role="line"
         id="tspan1653-1"
         x="82.402565"
         y="99.356621"
         style="fill:#a4a4a4;fill-opacity:1;stroke-width:0.1086707">clear</tspan></text>
    <text
       xml:space="preserve"
       style="font-style:normal;font-weight:normal;font-size:4.34682798px;line-height:1.25;font-family:sans-serif;letter-spacing:0px;word-spacing:0px;display:inline;fill:#757575;fill-opacity:1;stroke:none;stroke-width:0.1086707"
       x="82.185226"
       y="99.139282"
       id="text1655-7-2"><tspan
         sodipodi:role="line"
         id="tspan1653-1-7"
         x="82.185226"
         y="99.139282"
         style="fill:#757575;fill-opacity:1;stroke-width:0.1086707">clear</tspan></text>
  </g>
  <g
     inkscape:groupmode="layer"
     id="layer2"
     inkscape:label="infoBtns"
     style="display:inline"
     transform="translate(-66.225883,-90.5494)"
     sodipodi:insensitive="true">
    <g
       aria-label="1"
       transform="matrix(0.21912112,0,0,0.21912112,43.24181,42.605858)"
       style="font-style:normal;font-weight:normal;font-size:40px;line-height:1.25;font-family:sans-serif;letter-spacing:0px;word-spacing:0px;display:inline;fill:#ffffff;fill-opacity:1;stroke:none"
       id="flowRoot1119">
      <path
         d="m 177.17187,413.01274 h -15.74218 v -2.96875 h 6.05468 v -19.49218 h -6.05468 v -2.65625 q 1.23047,0 2.63672,-0.19532 1.40625,-0.21484 2.1289,-0.60546 0.89844,-0.48829 1.40625,-1.23047 0.52735,-0.76172 0.60547,-2.03125 h 3.02734 v 26.21093 h 5.9375 z"
         id="path310"
         inkscape:connector-curvature="0" />
    </g>
    <g
       aria-label="2"
       transform="matrix(0.21912112,0,0,0.21912112,60.705106,42.39903)"
       style="font-style:normal;font-weight:normal;font-size:40px;line-height:1.25;font-family:sans-serif;letter-spacing:0px;word-spacing:0px;display:inline;fill:#ffffff;fill-opacity:1;stroke:none"
       id="flowRoot1119-9">
      <path
         d="m 178.83203,413.01274 h -19.6875 v -4.08203 q 2.05078,-1.75781 4.10156,-3.51562 2.07032,-1.75781 3.84766,-3.4961 3.75,-3.63281 5.13672,-5.76171 1.38672,-2.14844 1.38672,-4.62891 0,-2.26563 -1.50391,-3.53516 -1.48437,-1.28906 -4.16016,-1.28906 -1.77734,0 -3.84765,0.625 -2.07031,0.625 -4.04297,1.91406 h -0.19531 v -4.10156 q 1.38672,-0.68359 3.6914,-1.25 2.32422,-0.56641 4.49219,-0.56641 4.47266,0 7.01172,2.16797 2.53906,2.14844 2.53906,5.83985 0,1.66015 -0.42969,3.10547 -0.41015,1.42578 -1.23046,2.71484 -0.76172,1.21094 -1.79688,2.38281 -1.01562,1.17188 -2.48047,2.59766 -2.08984,2.05078 -4.3164,3.98437 -2.22657,1.91407 -4.16016,3.55469 h 15.64453 z"
         id="path313"
         inkscape:connector-curvature="0" />
    </g>
    <g
       aria-label="3"
       transform="matrix(0.21912112,0,0,0.21912112,77.508868,42.672014)"
       style="font-style:normal;font-weight:normal;font-size:40px;line-height:1.25;font-family:sans-serif;letter-spacing:0px;word-spacing:0px;display:inline;fill:#ffffff;fill-opacity:1;stroke:none"
       id="flowRoot1119-9-6">
      <path
         d="m 176.27344,399.00884 q 0.9375,0.83984 1.54297,2.10937 0.60546,1.26953 0.60546,3.28125 0,1.99219 -0.72265,3.65235 -0.72266,1.66015 -2.03125,2.89062 -1.46485,1.36719 -3.45703,2.03125 -1.97266,0.64453 -4.33594,0.64453 -2.42188,0 -4.76563,-0.58593 -2.34375,-0.56641 -3.84765,-1.25 v -4.08204 h 0.29297 q 1.66015,1.09375 3.90625,1.81641 2.24609,0.72266 4.33593,0.72266 1.23047,0 2.61719,-0.41016 1.38672,-0.41016 2.2461,-1.21094 0.89843,-0.85937 1.32812,-1.89453 0.44922,-1.03515 0.44922,-2.61719 0,-1.5625 -0.50781,-2.57812 -0.48828,-1.03516 -1.36719,-1.62109 -0.87891,-0.60547 -2.12891,-0.82032 -1.25,-0.23437 -2.69531,-0.23437 h -1.75781 v -3.24219 h 1.36719 q 2.96875,0 4.72656,-1.23047 1.77734,-1.25 1.77734,-3.63281 0,-1.05469 -0.44922,-1.83594 -0.44922,-0.80078 -1.25,-1.30859 -0.83984,-0.50781 -1.79687,-0.70313 -0.95703,-0.19531 -2.16797,-0.19531 -1.85547,0 -3.94531,0.66406 -2.08985,0.66407 -3.94532,1.875 h -0.19531 v -4.08203 q 1.38672,-0.68359 3.69141,-1.25 2.32422,-0.58594 4.49219,-0.58594 2.1289,0 3.75,0.39063 1.62109,0.39062 2.92968,1.25 1.40625,0.9375 2.12891,2.26562 0.72266,1.32813 0.72266,3.10547 0,2.42188 -1.71875,4.23828 -1.69922,1.79688 -4.02344,2.26563 v 0.27344 q 0.9375,0.15625 2.14844,0.66406 1.21093,0.48828 2.05078,1.23047 z"
         id="path316"
         inkscape:connector-curvature="0" />
    </g>
    <g
       aria-label="4"
       transform="matrix(0.21912112,0,0,0.21912112,43.543296,62.085731)"
       style="font-style:normal;font-weight:normal;font-size:40px;line-height:1.25;font-family:sans-serif;letter-spacing:0px;word-spacing:0px;display:inline;fill:#ffffff;fill-opacity:1;stroke:none"
       id="flowRoot1119-3">
      <path
         d="m 179.49609,404.82915 h -4.3164 v 8.18359 h -3.75 v -8.18359 h -13.92578 v -4.49219 l 14.08203,-16.40625 h 3.59375 v 17.77344 h 4.3164 z m -8.0664,-3.125 v -13.125 l -11.26953,13.125 z"
         id="path319"
         inkscape:connector-curvature="0" />
    </g>
    <g
       aria-label="5"
       transform="matrix(0.21912112,0,0,0.21912112,60.789251,61.878904)"
       style="font-style:normal;font-weight:normal;font-size:40px;line-height:1.25;font-family:sans-serif;letter-spacing:0px;word-spacing:0px;display:inline;fill:#ffffff;fill-opacity:1;stroke:none"
       id="flowRoot1119-9-1">
      <path
         d="m 178.59766,403.77446 q 0,2.03125 -0.74219,3.88672 -0.74219,1.85547 -2.03125,3.125 -1.40625,1.36719 -3.35938,2.10938 -1.93359,0.72265 -4.49218,0.72265 -2.38282,0 -4.58985,-0.50781 -2.20703,-0.48828 -3.73047,-1.19141 v -4.12109 h 0.27344 q 1.60156,1.01563 3.75,1.73828 2.14844,0.70313 4.21875,0.70313 1.38672,0 2.67578,-0.39063 1.3086,-0.39062 2.32422,-1.36719 0.85938,-0.83984 1.28906,-2.01171 0.44922,-1.17188 0.44922,-2.71485 0,-1.5039 -0.52734,-2.53906 -0.50781,-1.03516 -1.42578,-1.66016 -1.01563,-0.74218 -2.48047,-1.03515 -1.44531,-0.3125 -3.24219,-0.3125 -1.71875,0 -3.32031,0.23437 -1.58203,0.23438 -2.73438,0.46875 v -14.98047 h 17.5 v 3.41797 h -13.73047 v 7.73438 q 0.83985,-0.0781 1.71875,-0.11719 0.87891,-0.0391 1.52344,-0.0391 2.36328,0 4.14063,0.41015 1.77734,0.39063 3.26172,1.40625 1.5625,1.07422 2.42187,2.77344 0.85938,1.69922 0.85938,4.25781 z"
         id="path322"
         inkscape:connector-curvature="0" />
    </g>
    <g
       aria-label="6"
       transform="matrix(0.21912112,0,0,0.21912112,78.027697,62.151885)"
       style="font-style:normal;font-weight:normal;font-size:40px;line-height:1.25;font-family:sans-serif;letter-spacing:0px;word-spacing:0px;display:inline;fill:#ffffff;fill-opacity:1;stroke:none"
       id="flowRoot1119-9-6-0">
      <path
         d="m 179.26172,403.57915 q 0,4.43359 -2.92969,7.24609 -2.91016,2.79297 -7.14844,2.79297 -2.14843,0 -3.90625,-0.66406 -1.75781,-0.66406 -3.10547,-1.97266 -1.67968,-1.62109 -2.59765,-4.29687 -0.89844,-2.67578 -0.89844,-6.44531 0,-3.86719 0.82031,-6.85547 0.83985,-2.98828 2.65625,-5.3125 1.71875,-2.20703 4.4336,-3.4375 2.71484,-1.25 6.32812,-1.25 1.15235,0 1.9336,0.0976 0.78125,0.0977 1.58203,0.35157 v 3.73047 h -0.19532 q -0.54687,-0.29297 -1.66015,-0.54688 -1.09375,-0.27344 -2.2461,-0.27344 -4.19921,0 -6.69921,2.63672 -2.5,2.61719 -2.91016,7.08985 1.64062,-0.9961 3.22266,-1.50391 1.60156,-0.52734 3.6914,-0.52734 1.85547,0 3.26172,0.35156 1.42578,0.33203 2.91016,1.36719 1.71875,1.1914 2.57812,3.00781 0.87891,1.8164 0.87891,4.41406 z m -3.96485,0.15625 q 0,-1.81641 -0.54687,-3.00781 -0.52734,-1.19141 -1.75781,-2.07031 -0.89844,-0.625 -1.99219,-0.82032 -1.09375,-0.19531 -2.28516,-0.19531 -1.66015,0 -3.08593,0.39063 -1.42579,0.39062 -2.92969,1.21093 -0.0391,0.42969 -0.0586,0.83985 -0.0195,0.39062 -0.0195,0.99609 0,3.08594 0.625,4.88281 0.64453,1.77735 1.75782,2.8125 0.89843,0.85938 1.93359,1.26953 1.05469,0.39063 2.28516,0.39063 2.83203,0 4.45312,-1.71875 1.62109,-1.73828 1.62109,-4.98047 z"
         id="path325"
         inkscape:connector-curvature="0" />
    </g>
    <g
       aria-label="7"
       transform="matrix(0.21912112,0,0,0.21912112,43.977979,80.994433)"
       style="font-style:normal;font-weight:normal;font-size:40px;line-height:1.25;font-family:sans-serif;letter-spacing:0px;word-spacing:0px;display:inline;fill:#ffffff;fill-opacity:1;stroke:none"
       id="flowRoot1119-1">
      <path
         d="m 178.91016,388.28618 -13.16407,24.72656 h -4.17968 l 14.0039,-25.66406 h -16.5625 v -3.41797 h 19.90235 z"
         id="path328"
         inkscape:connector-curvature="0" />
    </g>
    <g
       aria-label="8"
       transform="matrix(0.21912112,0,0,0.21912112,61.006592,80.787606)"
       style="font-style:normal;font-weight:normal;font-size:40px;line-height:1.25;font-family:sans-serif;letter-spacing:0px;word-spacing:0px;display:inline;fill:#ffffff;fill-opacity:1;stroke:none"
       id="flowRoot1119-9-61">
      <path
         d="m 179.04687,404.90728 q 0,3.76953 -2.94921,6.26953 -2.92969,2.5 -7.38282,2.5 -4.72656,0 -7.53906,-2.44141 -2.79297,-2.44141 -2.79297,-6.25 0,-2.42187 1.40625,-4.375 1.40625,-1.97266 3.96485,-3.125 v -0.11719 q -2.34375,-1.25 -3.47657,-2.73437 -1.11328,-1.48438 -1.11328,-3.71094 0,-3.28125 2.69531,-5.46875 2.69532,-2.1875 6.85547,-2.1875 4.35547,0 6.95313,2.08984 2.59765,2.08985 2.59765,5.3125 0,1.97266 -1.23046,3.88672 -1.23047,1.89453 -3.61329,2.96875 v 0.11719 q 2.73438,1.17188 4.17969,2.89063 1.44531,1.71875 1.44531,4.375 z m -4.6289,-14.19922 q 0,-2.08985 -1.6211,-3.32032 -1.60156,-1.25 -4.10156,-1.25 -2.46094,0 -4.04297,1.17188 -1.5625,1.17187 -1.5625,3.16406 0,1.40625 0.78125,2.44141 0.80078,1.01562 2.40235,1.8164 0.72265,0.35157 2.07031,0.91797 1.36719,0.56641 2.65625,0.9375 1.93359,-1.28906 2.67578,-2.67578 0.74219,-1.38672 0.74219,-3.20312 z m 0.60547,14.57031 q 0,-1.79688 -0.80078,-2.87109 -0.78125,-1.09375 -3.08594,-2.1875 -0.91797,-0.42969 -2.01172,-0.80079 -1.09375,-0.37109 -2.91016,-1.03515 -1.75781,0.95703 -2.83203,2.59765 -1.05469,1.64063 -1.05469,3.71094 0,2.63672 1.81641,4.35547 1.81641,1.71875 4.60938,1.71875 2.85156,0 4.55078,-1.46484 1.71875,-1.46485 1.71875,-4.02344 z"
         id="path331"
         inkscape:connector-curvature="0" />
    </g>
    <g
       aria-label="9"
       transform="matrix(0.21912112,0,0,0.21912112,78.245038,81.060587)"
       style="font-style:normal;font-weight:normal;font-size:40px;line-height:1.25;font-family:sans-serif;letter-spacing:0px;word-spacing:0px;display:inline;fill:#ffffff;fill-opacity:1;stroke:none"
       id="flowRoot1119-9-6-7">
      <path
         d="m 178.79297,396.72368 q 0,3.8086 -0.87891,6.91406 -0.85937,3.10547 -2.61719,5.29297 -1.77734,2.22657 -4.45312,3.4375 -2.67578,1.21094 -6.28906,1.21094 -1.01563,0 -1.91407,-0.11719 -0.89843,-0.0976 -1.60156,-0.33203 v -3.73047 h 0.19531 q 0.56641,0.29297 1.60157,0.56641 1.03515,0.25391 2.30468,0.25391 4.31641,0 6.75782,-2.57813 2.46093,-2.59766 2.85156,-7.14844 -1.81641,1.09375 -3.41797,1.5625 -1.60156,0.46875 -3.49609,0.46875 -1.79688,0 -3.26172,-0.35156 -1.44531,-0.35156 -2.91016,-1.36719 -1.71875,-1.1914 -2.59765,-3.02734 -0.85938,-1.83594 -0.85938,-4.39453 0,-4.45313 2.92969,-7.2461 2.92969,-2.79296 7.14844,-2.79296 2.10937,0 3.90625,0.66406 1.79687,0.64453 3.14453,1.95312 1.66015,1.6211 2.55859,4.17969 0.89844,2.53906 0.89844,6.58203 z m -3.94531,-0.83984 q 0,-3.02735 -0.625,-4.86328 -0.625,-1.83594 -1.71875,-2.85157 -0.91797,-0.8789 -1.97266,-1.25 -1.05469,-0.39062 -2.28516,-0.39062 -2.8125,0 -4.45312,1.75781 -1.6211,1.75781 -1.6211,4.94141 0,1.85547 0.52735,3.02734 0.52734,1.17188 1.77734,2.05078 0.87891,0.60547 1.9336,0.82032 1.05468,0.19531 2.34375,0.19531 1.52343,0 3.08593,-0.41016 1.5625,-0.41015 2.92969,-1.1914 0.0195,-0.41016 0.0391,-0.80079 0.0391,-0.41015 0.0391,-1.03515 z"
         id="path334"
         inkscape:connector-curvature="0" />
    </g>
    <g
       aria-label="+"
       transform="matrix(0.21912112,0,0,0.21912112,94.183844,80.342408)"
       style="font-style:normal;font-weight:normal;font-size:40px;line-height:1.25;font-family:sans-serif;letter-spacing:0px;word-spacing:0px;display:inline;fill:#ffffff;fill-opacity:1;stroke:none"
       id="flowRoot1119-6">
      <path
         d="m 184.63281,401.84087 h -10.64453 v 10.64453 h -3.24219 v -10.64453 h -10.64453 v -3.125 h 10.64453 v -10.64453 h 3.24219 v 10.64453 h 10.64453 z"
         id="path337"
         inkscape:connector-curvature="0" />
    </g>
    <g
       aria-label="0"
       transform="matrix(0.21912112,0,0,0.21912112,60.789251,99.913649)"
       style="font-style:normal;font-weight:normal;font-size:40px;line-height:1.25;font-family:sans-serif;letter-spacing:0px;word-spacing:0px;display:inline;fill:#ffffff;fill-opacity:1;stroke:none"
       id="flowRoot1119-9-4">
      <path
         d="m 178.79297,398.46196 q 0,7.83203 -2.46094,11.50391 -2.44141,3.65234 -7.59766,3.65234 -5.23437,0 -7.65625,-3.71093 -2.40234,-3.71094 -2.40234,-11.40625 0,-7.75391 2.44141,-11.44532 2.4414,-3.71093 7.61718,-3.71093 5.23438,0 7.63672,3.76953 2.42188,3.75 2.42188,11.34765 z m -5.13672,8.86719 q 0.68359,-1.58203 0.91797,-3.71094 0.2539,-2.14843 0.2539,-5.15625 0,-2.96875 -0.2539,-5.15625 -0.23438,-2.1875 -0.9375,-3.71093 -0.6836,-1.50391 -1.875,-2.26563 -1.17188,-0.76172 -3.02735,-0.76172 -1.83593,0 -3.04687,0.76172 -1.19141,0.76172 -1.89453,2.30469 -0.66406,1.44531 -0.91797,3.76953 -0.23438,2.32422 -0.23438,5.09766 0,3.04687 0.21485,5.09765 0.21484,2.05078 0.91797,3.67188 0.64453,1.52343 1.8164,2.32422 1.19141,0.80078 3.14453,0.80078 1.83594,0 3.04688,-0.76172 1.21094,-0.76172 1.875,-2.30469 z"
         id="path340"
         inkscape:connector-curvature="0" />
    </g>
    <g
       aria-label="-"
       transform="matrix(0.21912112,0,0,0.21912112,78.679721,99.751947)"
       style="font-style:normal;font-weight:normal;font-size:40px;line-height:1.25;font-family:sans-serif;letter-spacing:0px;word-spacing:0px;display:inline;fill:#ffffff;fill-opacity:1;stroke:none"
       id="flowRoot1119-9-6-5">
      <path
         d="m 171.17578,402.05571 h -12.1875 v -3.53515 h 12.1875 z"
         id="path343"
         inkscape:connector-curvature="0" />
    </g>
    <g
       transform="matrix(0.5334998,0,0,0.5334998,81.005919,-112.07159)"
       style="font-style:normal;font-weight:normal;font-size:40px;line-height:1.25;font-family:sans-serif;letter-spacing:0px;word-spacing:0px;display:inline;fill:#ffffff;fill-opacity:1;stroke:none"
       id="flowRoot1119-9-6-6" />
    <g
       aria-label="."
       transform="matrix(0.21912112,0,0,0.21912112,45.090501,99.617363)"
       style="font-style:normal;font-weight:normal;font-size:40px;line-height:1.25;font-family:sans-serif;letter-spacing:0px;word-spacing:0px;display:inline;fill:#ffffff;fill-opacity:1;stroke:none"
       id="flowRoot1119-9-6-7-2">
      <path
         d="m 165.60937,413.01274 h -4.66796 v -5.5664 h 4.66796 z"
         id="path347"
         inkscape:connector-curvature="0" />
    </g>
    <g
       aria-label="="
       transform="matrix(0.21912112,0,0,0.21912112,94.209656,99.182682)"
       style="font-style:normal;font-weight:normal;font-size:40px;line-height:1.25;font-family:sans-serif;letter-spacing:0px;word-spacing:0px;display:inline;fill:#ffffff;fill-opacity:1;stroke:none"
       id="flowRoot1119-9-6-5-9">
      <path
         d="m 183.94922,397.73931 h -23.16406 v -3.125 h 23.16406 z m 0,8.20312 h -23.16406 v -3.125 h 23.16406 z"
         id="path350"
         inkscape:connector-curvature="0" />
    </g>
    <path
       style="fill:#ffffff;fill-opacity:1;stroke-width:0.07723787"
       d="m 132.94001,127.43668 a 0.77237874,0.77237874 0 0 1 -0.77238,0.77238 0.77237874,0.77237874 0 0 1 -0.77238,-0.77238 0.77237874,0.77237874 0 0 1 0.77238,-0.77238 0.77237874,0.77237874 0 0 1 0.77238,0.77238 z"
       id="path1711"
       inkscape:connector-curvature="0" />
    <path
       style="fill:#ffffff;fill-opacity:1;stroke-width:0.07296205"
       d="m 129.28232,129.23839 h 5.77062 c 0.13829,0 0.24962,0.11133 0.24962,0.24962 v 0.16642 c 0,0.13829 -0.11133,0.24962 -0.24962,0.24962 h -5.77062 c -0.13829,0 -0.24962,-0.11133 -0.24962,-0.24962 v -0.16642 c 0,-0.13829 0.11133,-0.24962 0.24962,-0.24962 z"
       id="rect1713"
       inkscape:connector-curvature="0" />
    <path
       style="display:inline;fill:#ffffff;fill-opacity:1;stroke-width:0.07723787"
       d="m 132.94001,131.60428 a 0.77237874,0.77237874 0 0 1 -0.77238,0.77238 0.77237874,0.77237874 0 0 1 -0.77238,-0.77238 0.77237874,0.77237874 0 0 1 0.77238,-0.77238 0.77237874,0.77237874 0 0 1 0.77238,0.77238 z"
       id="path1711-1"
       inkscape:connector-curvature="0" />
    <g
       aria-label="+"
       transform="matrix(0.15174939,-0.1580702,0.1580702,0.15174939,42.70057,115.2719)"
       style="font-style:normal;font-weight:normal;font-size:40px;line-height:1.25;font-family:sans-serif;letter-spacing:0px;word-spacing:0px;display:inline;fill:#ffffff;fill-opacity:1;stroke:none"
       id="flowRoot1119-6-1">
      <path
         d="m 184.63281,401.84087 h -10.64453 v 10.64453 h -3.24219 v -10.64453 h -10.64453 v -3.125 h 10.64453 v -10.64453 h 3.24219 v 10.64453 h 10.64453 z"
         id="path356"
         inkscape:connector-curvature="0" />
    </g>
  </g>
  <g
     inkscape:groupmode="layer"
     id="layer3"
     inkscape:label="Btns"
     style="display:inline"
     transform="translate(-66.225883,-90.5494)"
     sodipodi:insensitive="true">
    <rect
    value = "6"
       style="display:inline;fill:#9f968f;fill-opacity:0;stroke-width:0.08355558"
       id="button6"
       width="14.575355"
       height="14.451995"
       x="107.26112"
       y="141.85416"
       ry="4.1072392" />
    <rect
    value = "5"
       style="display:inline;fill:#9f968f;fill-opacity:0;stroke-width:0.08355558"
       id="button5"
       width="14.575355"
       height="14.451995"
       x="90.256531"
       y="141.85416"
       ry="4.1072392" />
    <rect
    value = "4"
       style="display:inline;fill:#9f968f;fill-opacity:0;stroke-width:0.08355558"
       id="button4"
       width="14.575355"
       height="14.451995"
       x="73.251953"
       y="141.85416"
       ry="4.1072392" />
    <rect
    value = "1"
       style="display:inline;fill:#9f968f;fill-opacity:0;stroke-width:0.08355558"
       id="button1"
       width="14.575355"
       height="14.451995"
       x="73.251953"
       y="122.75687"
       ry="4.1072392" />
    <rect
    value = "3"
       style="display:inline;fill:#9f968f;fill-opacity:0;stroke-width:0.08355558"
       id="button3"
       width="14.575355"
       height="14.451995"
       x="107.26111"
       y="122.75687"
       ry="4.1072392" />
    <rect
    value = "2"
       style="display:inline;fill:#9f968f;fill-opacity:0;stroke-width:0.08355558"
       id="button2"
       width="14.575355"
       height="14.451995"
       x="90.256531"
       y="122.75687"
       ry="4.1072392" />
    <rect
    value = "-"
       style="display:inline;fill:#9f968f;fill-opacity:0;stroke-width:0.08355558"
       id="buttonMenos"
       width="14.575355"
       height="14.451995"
       x="107.26112"
       y="180.04872"
       ry="4.1072392" />
    <rect
    value = "0"
       style="display:inline;fill:#9f968f;fill-opacity:0;stroke-width:0.08355558"
       id="button0"
       width="14.575355"
       height="14.451995"
       x="90.256531"
       y="180.04872"
       ry="4.1072392" />
    <rect
    value = "."
       style="display:inline;fill:#9f968f;fill-opacity:0;stroke-width:0.08355558"
       id="buttonDot"
       width="14.575355"
       height="14.451995"
       x="73.251953"
       y="180.04872"
       ry="4.1072392" />
    <rect
    value = "7"
       style="display:inline;fill:#9f968f;fill-opacity:0;stroke-width:0.08355558"
       id="button7"
       width="14.575355"
       height="14.451995"
       x="73.251953"
       y="160.95145"
       ry="4.1072392" />
    <rect
    value = "9"
       style="display:inline;fill:#9f968f;fill-opacity:0;stroke-width:0.08355558"
       id="button9"
       width="14.575355"
       height="14.451995"
       x="107.26111"
       y="160.95145"
       ry="4.1072392" />
    <rect
    value = "8"
       style="display:inline;fill:#9f968f;fill-opacity:0;stroke-width:0.08355558"
       id="button8"
       width="14.575355"
       height="14.451995"
       x="90.256531"
       y="160.95145"
       ry="4.1072392" />
    <rect
        value = "*"
       style="display:inline;fill:#9f968f;fill-opacity:0;stroke-width:0.08355558"
       id="buttonMultiplica"
       width="14.575355"
       height="14.451995"
       x="124.45255"
       y="141.59587"
       ry="4.1072392" />
    <rect
       value = "/"
       style="display:inline;fill:#9f968f;fill-opacity:0;stroke-width:0.08355558"
       id="buttonDivide"
       width="14.575355"
       height="14.451995"
       x="124.45254"
       y="122.49859"
       ry="4.1072392" />
    <rect
       value = "="
       style="display:inline;fill:#9f968f;fill-opacity:0;stroke-width:0.08355558"
       id="buttonIgual"
       width="14.575355"
       height="14.451995"
       x="124.45255"
       y="179.79042"
       ry="4.1072392" />
    <rect
       value = "+"
       style="display:inline;fill:#9f968f;fill-opacity:0;stroke-width:0.08355558"
       id="buttonMais"
       width="14.575355"
       height="14.451995"
       x="124.45254"
       y="160.69316"
       ry="4.1072392" />
  </g>
  <g
     inkscape:groupmode="layer"
     id="layer4"
     inkscape:label="display"
     transform="translate(-66.225883,-90.5494)"
     style="display:inline"
     sodipodi:insensitive="true">
    <text
    text-anchor = "end"
       xml:space="preserve"
       style="font-style:normal;font-weight:normal;font-size:4.16787577px;line-height:1.25;font-family:sans-serif;letter-spacing:0px;word-spacing:0px;fill:#40eb00;fill-opacity:1;stroke:none;stroke-width:0.10419689"
       x="131.82506"
       y="106.48107"
       id="text1595"
       transform="scale(0.93274524,1.0721041)"><tspan
         sodipodi:role="line"
         id="displayCalculo"
         x="149.82506"
         y="106.48107"
         style="font-style:normal;font-variant:normal;font-weight:normal;font-stretch:normal;font-size:6.66860104px;font-family:Digital-7;-inkscape-font-specification:Digital-7;fill:#40eb00;fill-opacity:1;stroke-width:0.10419689">0</tspan></text>
    <text
       xml:space="preserve"
       style="font-style:normal;font-weight:normal;font-size:3.22279882px;line-height:1.25;font-family:sans-serif;letter-spacing:0px;word-spacing:0px;fill:#9f9393;fill-opacity:1;stroke:none;stroke-width:0.08056997"
       x="80.945351"
       y="99.555855"
       id="text1595-1"
       transform="scale(0.93274524,1.0721041)"><tspan
         sodipodi:role="line"
         id="displayHora"
         x="80.945351"
         y="99.555855"
         style="font-style:normal;font-variant:normal;font-weight:normal;font-stretch:normal;font-size:5.15647793px;font-family:Digital-7;-inkscape-font-specification:Digital-7;fill:#9f9393;fill-opacity:1;stroke-width:0.08056997">hora</tspan></text>
    <text
       text-anchor = "end"
       xml:space="preserve"
       style="font-style:normal;font-weight:normal;font-size:3.22279882px;line-height:1.25;font-family:sans-serif;letter-spacing:0px;word-spacing:0px;fill:#9f9393;fill-opacity:1;stroke:none;stroke-width:0.08056997"
       x="140.59657"
       y="99.758575"
       id="text1595"
       transform="scale(0.93274524,1.0721041)"><tspan
         sodipodi:role="line"
         id="displayData"
         x="149.59657"
         y="99.758575"
         style="font-style:normal;font-variant:normal;font-weight:normal;font-stretch:normal;font-size:5.15647793px;font-family:Digital-7;-inkscape-font-specification:Digital-7;fill:#9f9393;fill-opacity:1;stroke-width:0.08056997">loading...</tspan></text>
  </g>
  <g
     inkscape:groupmode="layer"
     id="layer5"
     inkscape:label="displayEffect"
     transform="translate(-66.225883,-90.5494)"
     sodipodi:insensitive="true">
    <rect
       style="display:inline;fill:url(#linearGradient1832);fill-opacity:1;stroke-width:0.09755913"
       id="rect841-3-0"
       width="65.352989"
       height="12.554469"
       x="75.261078"
       y="102.56528" />
  </g>
</svg>
